<svg height="472pt" viewBox="-40 0 472 472" width="472pt" xmlns="http://www.w3.org/2000/svg"><path d="m376 32h-152c-8.800781 0-16 7.199219-16 16v80c0 8.800781 7.199219 16 16 16h48v72h24l24-72h56c8.800781 0 16-7.199219 16-16v-80c0-8.800781-7.199219-16-16-16zm0 0" fill="#2aa035"/><path d="m302.398438 299.199219c-14.398438-17.597657-35.199219-27.199219-57.597657-27.199219h-169.601562c-41.597657 0-75.199219 33.601562-75.199219 75.199219v124.800781h320v-124.800781c0-17.597657-6.398438-34.398438-17.601562-48zm0 0" fill="#264b74"/><path d="m120 224h80v48h-80zm0 0" fill="#d3afa3"/><path d="m80 472h-16v-85.601562l-14.398438-21.597657 12.796876-9.601562 17.601562 26.402343zm0 0" fill="#2f5989"/><path d="m176 320v25.601562l15.199219 97.597657c.800781 3.199219-.800781 5.601562-3.199219 8l-23.199219 17.601562c-3.199219 2.398438-6.402343 2.398438-9.601562 0l-23.199219-17.601562c-2.398438-1.597657-3.199219-4.800781-3.199219-8l15.199219-97.597657v-25.601562c0-4.800781 3.199219-8 8-8h16c4.800781 0 8 3.199219 8 8zm0 0" fill="#1ca3d4"/><path d="m240 120h8c8.800781 0 16 7.199219 16 16v20.800781c0 7.199219-4.800781 12.800781-11.199219 15.199219l-12.800781 4c0 31.199219-24.800781 56-56 56h-48c-31.199219 0-56-24.800781-56-56l-16.800781-11.199219c-4.800781-3.199219-7.199219-8-7.199219-13.601562v-15.199219c0-8.800781 7.199219-16 16-16h8v-56c0-35.199219 28.800781-64 64-64h32c35.199219 0 64 28.800781 64 64zm0 0" fill="#efccbf"/><path d="m168 200h-16c-13.601562 0-24-10.398438-24-24h16c0 4.800781 3.199219 8 8 8h16c4.800781 0 8-3.199219 8-8h16c0 13.601562-10.398438 24-24 24zm0 0" fill="#d3756e"/><path d="m256 472h-16v-90.398438l17.601562-26.402343 12.796876 9.601562-14.398438 21.597657zm0 0" fill="#2f5989"/><path d="m264 80h24v16h-24zm0 0" fill="#fff"/><path d="m304 80h24v16h-24zm0 0" fill="#fff"/><path d="m344 80h24v16h-24zm0 0" fill="#fff"/><path d="m208 112h32v16h-32zm0 0" fill="#2b2b2b"/><path d="m136 56c33.601562 11.199219 68.800781 16.800781 104 16v-8c0-35.199219-28.800781-64-64-64h-32c-35.199219 0-64 28.800781-64 64v16c21.601562 4 44-5.601562 56-24zm0 0" fill="#2b2b2b"/><path d="m144 320v24h32v-24c0-4.800781-3.199219-8-8-8h-16c-4.800781 0-8 3.199219-8 8zm0 0" fill="#3777b7"/><path d="m120 272h80l-32 40h-16zm0 0" fill="#3777b7"/><path d="m144 120c0 8.835938-7.164062 16-16 16s-16-7.164062-16-16 7.164062-16 16-16 16 7.164062 16 16zm0 0" fill="#fff"/><path d="m208 120c0 8.835938-7.164062 16-16 16s-16-7.164062-16-16 7.164062-16 16-16 16 7.164062 16 16zm0 0" fill="#fff"/><g fill="#2b2b2b"><path d="m128 144c-13.601562 0-24-10.398438-24-24s10.398438-24 24-24 24 10.398438 24 24-10.398438 24-24 24zm0-32c-4.800781 0-8 3.199219-8 8s3.199219 8 8 8 8-3.199219 8-8-3.199219-8-8-8zm0 0"/><path d="m192 144c-13.601562 0-24-10.398438-24-24s10.398438-24 24-24 24 10.398438 24 24-10.398438 24-24 24zm0-32c-4.800781 0-8 3.199219-8 8s3.199219 8 8 8 8-3.199219 8-8-3.199219-8-8-8zm0 0"/><path d="m80 112h32v16h-32zm0 0"/><path d="m144 112h32v16h-32zm0 0"/></g></svg>