<?xml version="1.0" encoding="iso-8859-1"?>
<!-- Generator: Adobe Illustrator 19.0.0, SVG Export Plug-In . SVG Version: 6.00 Build 0)  -->
<svg version="1.1" id="Capa_1" xmlns="http://www.w3.org/2000/svg" xmlns:xlink="http://www.w3.org/1999/xlink" x="0px" y="0px"
	 viewBox="0 0 512.001 512.001" style="enable-background:new 0 0 512.001 512.001;" xml:space="preserve">
<path style="fill:#FEE4BB;" d="M221.668,385.997H50.002c-22.091,0-40-17.909-40-40V145.999c0-22.091,17.909-40,40-40h411.997
	c22.091,0,40,17.909,40,40v199.998c0,22.091-17.909,40-40,40h-34.544"/>
<path style="fill:#FF5D5D;" d="M385.026,381.725l-24.354,24.354l50.667,50.667L366.084,502l-50.667-50.667l-18.164,18.164
	l-32.128-119.9L385.026,381.725z"/>
<path d="M461.999,95.999H296.687c-5.522,0-10,4.477-10,10c0,5.523,4.478,10,10,10h165.312c16.542,0,30,13.458,30,30v199.998
	c0,16.542-13.458,30-30,30h-34.544c-5.522,0-10,4.477-10,10c0,5.523,4.478,10,10,10h34.544c27.57,0,50-22.43,50-50V145.999
	C511.999,118.429,489.569,95.999,461.999,95.999z"/>
<path d="M221.668,375.997H50.002c-16.542,0-30-13.458-30-30V145.999c0-16.542,13.458-30,30-30h166.67c5.522,0,10-4.477,10-10
	c0-5.523-4.478-10-10-10H50.002c-27.57,0-50,22.43-50,50v199.998c0,27.57,22.43,50,50,50h171.666c5.522,0,10-4.477,10-10
	C231.668,380.474,227.19,375.997,221.668,375.997z"/>
<path d="M296.029,271.648v-85.649c0-5.523-4.478-10-10-10c-5.522,0-10,4.477-10,10v85.649c0,13.426-10.924,24.35-24.351,24.35
	s-24.35-10.923-24.35-24.35v-85.649c0-5.523-4.478-10-10-10c-5.522,0-10,4.477-10,10v85.649c0,24.455,19.896,44.35,44.351,44.35
	C276.134,315.998,296.029,296.103,296.029,271.648z"/>
<path d="M164.992,215.998c0-22.056-17.944-40-40-40H84.546c-5.522,0-10,4.477-10,10v119.999c0,5.523,4.478,10,10,10h40.447
	c22.056,0,40-17.944,40-40c0-11.938-5.264-22.665-13.585-30C159.728,238.663,164.992,227.936,164.992,215.998z M144.992,275.998
	c0,11.028-8.972,20-20,20H94.546v-40h30.447C136.02,255.998,144.992,264.97,144.992,275.998z M94.546,235.998v-40h30.447
	c11.028,0,20,8.972,20,20c0,11.028-8.972,20-20,20H94.546z"/>
<path d="M387.175,315.998c5.522,0,10-4.477,10-10v-39.563l39.166-75.848c2.533-4.907,0.609-10.939-4.298-13.473
	c-4.904-2.534-10.939-0.61-13.474,4.297l-31.395,60.799l-31.394-60.799c-2.534-4.908-8.567-6.832-13.474-4.297
	c-4.907,2.534-6.831,8.566-4.298,13.473l39.165,75.848v39.563C377.176,311.521,381.653,315.998,387.175,315.998z"/>
<path d="M256.012,79.717c5.522,0,10-4.477,10-10V10c0-5.523-4.478-10-10-10c-5.522,0-10,4.477-10,10v59.718
	C246.012,75.24,250.489,79.717,256.012,79.717z"/>
<path d="M308.504,85.537c2.56,0,5.118-0.976,7.071-2.929l24.348-24.348c3.905-3.905,3.905-10.237,0-14.143
	c-3.906-3.905-10.236-3.905-14.143,0l-24.348,24.348c-3.905,3.905-3.905,10.237,0,14.143
	C303.386,84.561,305.944,85.537,308.504,85.537z"/>
<path d="M196.446,82.561c1.953,1.953,4.512,2.929,7.071,2.929c2.559,0,5.118-0.976,7.071-2.929c3.905-3.905,3.905-10.237,0-14.143
	L186.24,44.071c-3.906-3.905-10.236-3.905-14.143,0c-3.905,3.905-3.905,10.237,0,14.143L196.446,82.561z"/>
<path d="M374.813,406.079l17.283-17.283c2.526-2.526,3.513-6.208,2.588-9.659c-0.925-3.451-3.62-6.146-7.071-7.071l-119.899-32.127
	c-3.453-0.927-7.133,0.062-9.659,2.588c-2.526,2.526-3.513,6.208-2.588,9.66l32.127,119.899c0.925,3.451,3.62,6.146,7.071,7.071
	c3.452,0.926,7.133-0.062,9.659-2.588l11.094-11.093l43.596,43.596c1.953,1.952,4.512,2.929,7.071,2.929s5.118-0.977,7.071-2.929
	l45.255-45.255c3.905-3.905,3.905-10.237,0-14.143L374.813,406.079z M366.084,487.858l-43.596-43.596
	c-1.953-1.953-4.512-2.929-7.071-2.929c-2.559,0-5.118,0.977-7.071,2.929l-5.917,5.917l-23.161-86.439l86.438,23.162l-12.106,12.107
	c-3.905,3.905-3.905,10.237,0,14.142l43.596,43.596L366.084,487.858z"/>
<path d="M255.681,115.999c2.64,0,5.21-1.07,7.08-2.93c1.86-1.86,2.92-4.44,2.92-7.07c0-2.63-1.06-5.21-2.92-7.07
	s-4.44-2.93-7.08-2.93c-2.63,0-5.21,1.07-7.07,2.93c-1.859,1.86-2.93,4.44-2.93,7.07c0,2.63,1.07,5.21,2.93,7.07
	C250.48,114.929,253.051,115.999,255.681,115.999z"/>
<g>
</g>
<g>
</g>
<g>
</g>
<g>
</g>
<g>
</g>
<g>
</g>
<g>
</g>
<g>
</g>
<g>
</g>
<g>
</g>
<g>
</g>
<g>
</g>
<g>
</g>
<g>
</g>
<g>
</g>
</svg>
