<svg height="512pt" viewBox="0 -4 512 512" width="512pt" xmlns="http://www.w3.org/2000/svg"><g fill="#6ee6db"><path d="m118.414062 30.351562c-4.136718 28.484376 11.769532 61.105469 42.359376 81.144532 30.585937 20.039062 66.847656 21.589844 91.304687 6.417968 4.140625-28.480468-11.765625-61.105468-42.355469-81.144531-30.585937-20.039062-66.851562-21.589843-91.308594-6.417969zm0 0"/><path d="m393.585938 30.351562c4.136718 28.484376-11.769532 61.105469-42.359376 81.144532-30.585937 20.039062-66.847656 21.589844-91.304687 6.417968-4.140625-28.480468 11.765625-61.105468 42.355469-81.144531 30.585937-20.039062 66.851562-21.589843 91.308594-6.417969zm0 0"/><path d="m91.210938 155.0625c-4.957032 34.113281 14.09375 73.1875 50.730468 97.191406 36.636719 24 80.070313 25.855469 109.363282 7.683594 4.960937-34.113281-14.09375-73.1875-50.730469-97.1875-36.636719-24.003906-80.070313-25.859375-109.363281-7.6875zm0 0"/><path d="m420.789062 155.0625c4.960938 34.113281-14.09375 73.1875-50.730468 97.191406-36.636719 24-80.070313 25.855469-109.363282 7.683594-4.957031-34.113281 14.09375-73.1875 50.730469-97.1875 36.636719-24.003906 80.070313-25.859375 109.363281-7.6875zm0 0"/></g><path d="m256 362.167969c-8.285156 0-15-6.71875-15-15v-324.667969c0-8.285156 6.714844-15 15-15s15 6.714844 15 15v324.667969c0 8.28125-6.714844 15-15 15zm0 0" fill="#26bed3"/><path d="m437.425781 414.066406c-5.554687 0-10.945312.679688-16.101562 1.953125-4.882813 1.210938-9.960938-1.367187-11.707031-6.085937-9.46875-25.558594-34.054688-43.777344-62.902344-43.777344-5.554688 0-10.945313.679688-16.101563 1.957031-4.882812 1.207031-9.960937-1.371093-11.707031-6.085937-9.46875-25.558594-34.054688-43.777344-62.90625-43.777344s-53.4375 18.21875-62.902344 43.777344c-1.746094 4.714844-6.824218 7.292968-11.707031 6.085937-5.160156-1.277343-10.550781-1.957031-16.101563-1.957031-28.851562 0-53.4375 18.21875-62.902343 43.777344-1.75 4.71875-6.828125 7.296875-11.710938 6.085937-5.15625-1.273437-10.546875-1.953125-16.097656-1.953125-37.046875 0-67.074219 30.03125-67.074219 67.074219 0 5.378906.648438 10.601563 1.84375 15.613281h493.308594c1.195312-5.011718 1.847656-10.234375 1.847656-15.613281-.003906-37.042969-30.035156-67.074219-67.078125-67.074219zm0 0" fill="#cc8476"/><path d="m104.578125 414.066406c5.550781 0 10.941406.679688 16.097656 1.957032 4.882813 1.207031 9.960938-1.371094 11.707031-6.089844 7.773438-20.984375 25.742188-37.007813 47.890626-42.078125-4.820313-1.105469-9.832032-1.699219-14.984376-1.699219-28.851562 0-53.4375 18.21875-62.90625 43.777344-.664062 1.800781-1.820312 3.285156-3.257812 4.371094 1.800781-.144532 3.613281-.238282 5.453125-.238282zm0 0" fill="#cd654e"/><path d="m89.582031 415.769531c-4.824219-1.109375-9.84375-1.703125-15.007812-1.703125-37.042969 0-67.074219 30.03125-67.074219 67.074219 0 5.378906.652344 10.601563 1.847656 15.613281h30c-1.195312-5.011718-1.847656-10.234375-1.847656-15.613281 0-31.886719 22.261719-58.558594 52.082031-65.371094zm0 0" fill="#cd654e"/><path d="m195.289062 366.15625c5.550782 0 10.941407.679688 16.097657 1.957031 4.882812 1.207031 9.960937-1.371093 11.710937-6.085937 7.773438-20.992188 25.746094-37.019532 47.902344-42.085938-4.824219-1.101562-9.84375-1.695312-15-1.695312-28.851562 0-53.4375 18.222656-62.902344 43.777344-.664062 1.789062-1.804687 3.265624-3.230468 4.347656 1.789062-.140625 3.597656-.214844 5.421874-.214844zm0 0" fill="#cd654e"/><path d="m172.832031 410.457031c-4.144531 0-7.5 3.355469-7.5 7.5v15.050781c0 4.144532 3.355469 7.5 7.5 7.5 4.140625 0 7.5-3.355468 7.5-7.5v-15.050781c0-4.144531-3.359375-7.5-7.5-7.5zm0 0"/><path d="m339.167969 410.457031c-4.140625 0-7.5 3.355469-7.5 7.5v15.050781c0 4.144532 3.359375 7.5 7.5 7.5 4.144531 0 7.5-3.355468 7.5-7.5v-15.050781c0-4.144531-3.355469-7.5-7.5-7.5zm0 0"/><path d="m281.460938 426.3125c-3.117188-2.722656-7.855469-2.40625-10.582032.714844-3.621094 4.140625-9.042968 6.515625-14.878906 6.515625s-11.261719-2.375-14.882812-6.519531c-2.726563-3.117188-7.464844-3.433594-10.582032-.710938-3.121094 2.726562-3.4375 7.464844-.710937 10.585938 6.46875 7.398437 16.011719 11.644531 26.175781 11.644531s19.703125-4.246094 26.171875-11.644531c2.726563-3.121094 2.410156-7.859376-.710937-10.585938zm0 0"/><path d="m509.949219 498.492188c1.359375-5.707032 2.050781-11.542969 2.050781-17.351563 0-41.121094-33.453125-74.574219-74.578125-74.574219-6.042969 0-12.066406.730469-17.898437 2.175782-.207032.050781-.417969.074218-.625.074218-.84375 0-1.871094-.460937-2.25-1.488281-10.785157-29.113281-38.890626-48.671875-69.9375-48.671875-6.042969 0-12.066407.730469-17.898438 2.175781-.207031.050781-.417969.078125-.625.078125-.84375 0-1.871094-.460937-2.25-1.488281-8.089844-21.839844-25.925781-38.300781-47.4375-45.164063v-38.421874c8.722656 2.5 17.992188 3.765624 27.6875 3.765624 23.421875 0 46.929688-7.289062 67.980469-21.074218 18.824219-12.335938 33.878906-28.8125 43.527343-47.660156 9.574219-18.6875 13.207032-38.355469 10.515626-56.882813-.316407-2.1875-1.585938-4.128906-3.46875-5.292969-14.027344-8.703125-31.113282-13.300781-49.417969-13.300781-23.433594 0-46.949219 7.289063-68.007813 21.085937-10.996094 7.203126-20.707031 15.851563-28.816406 25.558594v-48.621094c6.199219 1.429688 12.6875 2.15625 19.398438 2.15625h.003906c19.796875 0 39.660156-6.15625 57.433594-17.800781 15.898437-10.414062 28.613281-24.335937 36.769531-40.257812 8.105469-15.835938 11.183593-32.515625 8.898437-48.238281-.316406-2.1875-1.585937-4.125-3.46875-5.292969-11.90625-7.386719-26.398437-11.292969-41.910156-11.292969-19.804688 0-39.675781 6.160156-57.460938 17.808594-7.226562 4.734375-13.835937 10.253906-19.664062 16.363281v-24.359375c0-12.40625-10.09375-22.5-22.5-22.5s-22.5 10.09375-22.5 22.5v24.359375c-5.828125-6.109375-12.4375-11.628906-19.667969-16.363281-17.53125-11.484375-37.9375-17.808594-57.457031-17.808594-15.511719 0-30.007812 3.90625-41.914062 11.292969-1.882813 1.167969-3.148438 3.105469-3.46875 5.292969-2.285157 15.722656.792968 32.402343 8.902343 48.238281 8.15625 15.921875 20.867188 29.84375 36.765625 40.257812 17.777344 11.644531 37.636719 17.800781 57.4375 17.800781 6.710938 0 13.199219-.730468 19.402344-2.15625v48.621094c-8.109375-9.707031-17.820312-18.355468-28.816406-25.5625-20.757813-13.597656-44.910156-21.085937-68.007813-21.085937-18.304687 0-35.394531 4.601562-49.417969 13.300781-1.882812 1.167969-3.152343 3.105469-3.46875 5.296875-2.695312 18.523437.941407 38.195313 10.511719 56.882813 9.652344 18.84375 24.703125 35.324218 43.53125 47.65625 20.746094 13.589843 44.890625 21.078124 67.980469 21.078124h.007812c9.691407 0 18.957032-1.269531 27.679688-3.765624v38.417968c-21.511719 6.863282-39.347656 23.328125-47.4375 45.164063-.382812 1.027343-1.40625 1.488281-2.25 1.488281-.210938 0-.417969-.023438-.625-.078125-5.835938-1.441406-11.859375-2.175781-17.902344-2.175781-31.046875 0-59.152344 19.5625-69.933594 48.671875-.382812 1.03125-1.40625 1.492187-2.253906 1.492187-.207031 0-.417968-.027344-.621094-.078125-5.835937-1.441406-11.859374-2.175781-17.902343-2.175781-41.121094.003906-74.574219 33.457031-74.574219 74.578125 0 5.808594.691406 11.648437 2.050781 17.351563.804688 3.378906 3.824219 5.761718 7.292969 5.761718h493.308594c3.472656 0 6.492187-2.386718 7.296875-5.761718zm-194.414063-329.46875c18.34375-12.019532 39.578125-18.636719 59.789063-18.636719 14.179687 0 27.394531 3.195312 38.457031 9.265625 2.847656 31.191406-16.003906 65.476562-47.832031 86.324218-18.335938 12.011719-39.558594 18.625-59.761719 18.625-9.855469 0-19.144531-1.507812-27.6875-4.488281v-2.875l95.285156-62.417969c3.464844-2.269531 4.433594-6.917968 2.164063-10.382812-2.273438-3.464844-6.921875-4.433594-10.386719-2.164062l-87.0625 57.035156v-30.878906c8.503906-15.488282 21.277344-29.082032 37.035156-39.40625zm-9.148437-125.980469c15.113281-9.902344 32.601562-15.355469 49.238281-15.355469 11.378906 0 21.996094 2.503906 30.929688 7.269531 2.019531 25.417969-13.460938 53.25-39.4375 70.265625-15.105469 9.898438-32.585938 15.347656-49.214844 15.347656-6.8125 0-13.316406-.882812-19.402344-2.628906v-3.230468l76.515625-50.125c3.464844-2.273438 4.433594-6.921876 2.164063-10.386719-2.269532-3.464844-6.917969-4.433594-10.382813-2.164063l-68.296875 44.742188v-25.742188c6.894531-10.886718 16.5-20.53125 27.886719-27.992187zm-92.289063 77.527343c-16.628906 0-34.109375-5.453124-49.214844-15.347656-25.976562-17.015625-41.457031-44.851562-39.441406-70.265625 8.9375-4.765625 19.554688-7.269531 30.933594-7.269531 16.636719 0 34.121094 5.453125 49.238281 15.355469 11.386719 7.457031 20.988281 17.105469 27.886719 27.992187v25.738282l-68.296875-44.738282c-3.464844-2.269531-8.113281-1.300781-10.386719 2.164063-2.269531 3.464843-1.300781 8.113281 2.164063 10.382812l76.519531 50.125v3.230469c-6.085938 1.75-12.589844 2.632812-19.402344 2.632812zm-8.277344 144.03125c-.003906 0-.003906 0-.007812 0-20.203125 0-41.429688-6.613281-59.761719-18.621093-31.828125-20.851563-50.679687-55.136719-47.832031-86.328125 11.0625-6.070313 24.28125-9.265625 38.457031-9.265625 20.210938 0 41.445313 6.621093 59.789063 18.636719 15.757812 10.324218 28.53125 23.917968 37.035156 39.40625v30.878906l-87.0625-57.035156c-3.464844-2.269532-8.113281-1.300782-10.386719 2.164062-2.269531 3.464844-1.300781 8.113281 2.164063 10.382812l95.285156 62.417969v2.875c-8.542969 2.980469-17.828125 4.488281-27.679688 4.488281zm57.679688 46.523438c-.25-.023438-.5-.03125-.75-.054688-4.746094-.425781-9.507812-.425781-14.25.054688v-288.625c0-4.136719 3.363281-7.5 7.5-7.5s7.5 3.363281 7.5 7.5zm232.941406 178.128906h-480.882812c-.371094-2.699218-.558594-5.410156-.558594-8.113281 0-32.851563 26.726562-59.574219 59.574219-59.574219 6.292969 0 12.335937 2.253906 18.527343 2.25 7.257813 0 13.816407-4.53125 16.316407-11.277344 10.328125-27.882812 41.316406-44.28125 70.167969-37.144531 8.445312 2.089844 17.507812-2.566406 20.542968-10.765625 7.195313-19.429687 24.058594-33.527344 43.875-37.640625 7.875-1.636719 16.113282-1.628906 23.988282 0 19.820312 4.113281 36.679687 18.210938 43.878906 37.640625 3.023437 8.167969 12.136718 12.839844 20.542968 10.765625 29.003907-7.167969 59.789063 9.128907 70.167969 37.144531 2.496094 6.746094 9.054688 11.277344 16.316407 11.277344 6.1875 0 12.226562-2.25 18.523437-2.25 32.851563 0 59.574219 26.722656 59.574219 59.574219.003906 2.703125-.183594 5.414063-.554688 8.113281zm0 0"/></svg>