<svg height="496pt" viewBox="0 0 496 496" width="496pt" xmlns="http://www.w3.org/2000/svg"><path d="m392 496v-248h32v248" fill="#754c24"/><path d="m392 248h16v248h-16zm0 0" fill="#8c6239"/><path d="m432 248h-48c-4.414062 0-8-3.585938-8-8v-56h64v56c0 4.414062-3.585938 8-8 8zm0 0" fill="#534741"/><path d="m416 240v-56h-40v56c0 4.414062 3.585938 8 8 8h24c4.414062 0 8-3.585938 8-8zm0 0" fill="#736357"/><path d="m488 184h-160v-96c0-44.183594 35.816406-80 80-80s80 35.816406 80 80zm0 0" fill="#736357"/><path d="m396 9c-38.472656 5.800781-68 38.902344-68 79v96h136v-96c0-40.097656-29.527344-73.199219-68-79zm0 0" fill="#998675"/><path d="m24 432h48v64h-48zm0 0" fill="#fabe78"/><path d="m264 432h48v64h-48zm0 0" fill="#fabe78"/><path d="m8 400h64v32h-64zm0 0" fill="#5cae6e"/><path d="m264 400h64v32h-64zm0 0" fill="#5cae6e"/><path d="m264 400h48v-88c0-17.671875-14.328125-32-32-32h-16zm0 0" fill="#3e744a"/><path d="m72 400h-48v-88c0-17.671875 14.328125-32 32-32h16zm0 0" fill="#3e744a"/><path d="m72 280h192v216h-192zm0 0" fill="#7be893"/><path d="m200 216v34.742188c0 8.488281 3.367188 16.625 9.375 22.625l6.625 6.632812c0 26.511719-21.488281 48-48 48s-48-21.488281-48-48l6.625-6.625c6-6 9.375-14.144531 9.375-22.621094v-34.753906zm0 0" fill="#f9a94b"/><g fill="#fabe78"><path d="m126.625 273.375-6.625 6.625c0 22.359375 15.3125 41.089844 36 46.425781 20.6875-5.335937 36-24.066406 36-46.425781l-6.625-6.625c-6.007812-6.007812-9.375-14.144531-9.375-22.632812v-34.742188h-40v34.742188c0 8.488281-3.367188 16.625-9.375 22.632812zm0 0"/><path d="m232 144h16c8.839844 0 16 7.160156 16 16s-7.160156 16-16 16h-16"/><path d="m104 144h-16c-8.839844 0-16 7.160156-16 16s7.160156 16 16 16h16"/></g><path d="m168 240c-35.34375 0-64-28.65625-64-64v-64h128v64c0 35.34375-28.65625 64-64 64zm0 0" fill="#f9a94b"/><path d="m156 238.839844c29.609375-5.625 52-31.601563 52-62.839844v-64h-104v64c0 31.238281 22.390625 57.214844 52 62.839844zm0 0" fill="#fabe78"/><path d="m280 112h-224l32-32h160zm0 0" fill="#603813"/><path d="m88 80-32 32h200l-32-32zm0 0" fill="#754c24"/><path d="m88 80 16-72h128l16 72zm0 0" fill="#754c24"/><path d="m104 8-16 72h136l-16-72zm0 0" fill="#8c6239"/><path d="m64 280h16v216h-16zm0 0"/><path d="m256 280h16v216h-16zm0 0"/><path d="m16 432h16v64h-16zm0 0"/><path d="m304 432h16v64h-16zm0 0"/><path d="m320 400h-16v-88c0-13.230469-10.769531-24-24-24h-56.566406c-3.890625 27.105469-27.265625 48-55.433594 48s-51.535156-20.894531-55.433594-48h-56.566406c-13.230469 0-24 10.769531-24 24v88h-16v-88c0-22.054688 17.945312-40 40-40h64c4.425781 0 8 3.585938 8 8 0 22.054688 17.945312 40 40 40s40-17.945312 40-40c0-4.414062 3.574219-8 8-8h64c22.054688 0 40 17.945312 40 40zm0 0"/><path d="m72 440h-64c-4.425781 0-8-3.585938-8-8v-32c0-4.414062 3.574219-8 8-8h64c4.425781 0 8 3.585938 8 8v32c0 4.414062-3.574219 8-8 8zm-56-16h48v-16h-48zm0 0"/><path d="m328 440h-64c-4.425781 0-8-3.585938-8-8v-32c0-4.414062 3.574219-8 8-8h64c4.425781 0 8 3.585938 8 8v32c0 4.414062-3.574219 8-8 8zm-56-16h48v-16h-48zm0 0"/><path d="m160 328h16v168h-16zm0 0"/><path d="m192 352h16v16h-16zm0 0"/><path d="m192 384h16v16h-16zm0 0"/><path d="m192 416h16v16h-16zm0 0"/><path d="m192 448h16v16h-16zm0 0"/><path d="m192 480h16v16h-16zm0 0"/><path d="m96 352h48v16h-48zm0 0"/><path d="m210.34375 285.65625-6.625-6.632812c-7.550781-7.550782-11.71875-17.597657-11.71875-28.28125v-18.742188h16v18.742188c0 6.320312 2.558594 12.496093 7.03125 16.96875l6.625 6.632812zm0 0"/><path d="m125.65625 285.65625-11.3125-11.3125 6.625-6.632812c4.472656-4.464844 7.03125-10.648438 7.03125-16.96875v-18.742188h16v18.742188c0 10.683593-4.167969 20.730468-11.71875 28.28125zm0 0"/><path d="m168 248c-39.703125 0-72-32.304688-72-72v-64c0-4.414062 3.574219-8 8-8h128c4.425781 0 8 3.585938 8 8v64c0 39.695312-32.296875 72-72 72zm-56-128v56c0 30.878906 25.128906 56 56 56s56-25.121094 56-56v-56zm0 0"/><path d="m104 184h-16c-13.230469 0-24-10.769531-24-24s10.769531-24 24-24h16v16h-16c-4.414062 0-8 3.59375-8 8s3.585938 8 8 8h16zm0 0"/><path d="m248 184h-16v-16h16c4.414062 0 8-3.59375 8-8s-3.585938-8-8-8h-16v-16h16c13.230469 0 24 10.769531 24 24s-10.769531 24-24 24zm0 0"/><path d="m280 120h-224c-3.230469 0-6.160156-1.953125-7.390625-4.9375-1.242187-2.992188-.554687-6.429688 1.734375-8.71875l32-32c1.496094-1.503906 3.527344-2.34375 5.65625-2.34375h160c2.128906 0 4.160156.839844 5.65625 2.34375l32 32c2.289062 2.289062 2.976562 5.726562 1.734375 8.71875-1.230469 2.984375-4.160156 4.9375-7.390625 4.9375zm-204.6875-16h185.375l-16-16h-153.375zm0 0"/><path d="m240.183594 81.734375-14.597656-65.734375h-115.171876l-14.597656 65.734375-15.625-3.46875 16-72c.816406-3.65625 4.054688-6.265625 7.808594-6.265625h128c3.753906 0 6.992188 2.609375 7.816406 6.265625l16 72zm0 0"/><path d="m128 136h16v16h-16zm0 0"/><path d="m192 136h16v16h-16zm0 0"/><path d="m168 216c-17.648438 0-32-14.351562-32-32h16c0 8.824219 7.175781 16 16 16s16-7.175781 16-16h16c0 17.648438-14.351562 32-32 32zm0 0"/><path d="m416 248h16v248h-16zm0 0"/><path d="m384 248h16v248h-16zm0 0"/><path d="m432 256h-48c-8.824219 0-16-7.175781-16-16v-56c0-4.414062 3.574219-8 8-8h64c4.425781 0 8 3.585938 8 8v56c0 8.824219-7.175781 16-16 16zm-48-64v48h48.007812l-.007812-48zm0 0"/><path d="m488 192h-160c-4.425781 0-8-3.585938-8-8v-96c0-48.519531 39.480469-88 88-88s88 39.480469 88 88v96c0 4.414062-3.574219 8-8 8zm-152-16h144v-88c0-39.695312-32.296875-72-72-72s-72 32.304688-72 72zm0 0"/><path d="m464 88h-16c0-22.054688-17.945312-40-40-40s-40 17.945312-40 40h-16c0-30.878906 25.128906-56 56-56s56 25.121094 56 56zm0 0"/></svg>