<?xml version="1.0" encoding="iso-8859-1"?>
<!-- Generator: Adobe Illustrator 19.0.0, SVG Export Plug-In . SVG Version: 6.00 Build 0)  -->
<svg xmlns="http://www.w3.org/2000/svg" xmlns:xlink="http://www.w3.org/1999/xlink" version="1.1" id="Layer_1" x="0px" y="0px" viewBox="0 0 512 512" style="enable-background:new 0 0 512 512;" xml:space="preserve" width="512" height="512">
<g>
	<ellipse style="fill:#5DDCF9;" cx="256" cy="256" rx="248.459" ry="248.5"/>
	<path style="fill:#43C5FF;" d="M388.974,46.06c42.885,44.657,69.252,105.302,69.252,172.11c0,137.243-111.239,248.5-248.459,248.5   c-48.916,0-94.523-14.147-132.974-38.56C122.005,475.19,185.577,504.5,256,504.5c137.22,0,248.459-111.257,248.459-248.5   C504.459,167.681,458.386,90.132,388.974,46.06z"/>
	<path style="fill:#E3FAFF;" d="M405.697,256c0,82.692-67.019,149.722-149.698,149.722c-48.586,0-91.764-23.151-119.113-59.038   c-4.643-6.092-8.835-12.546-12.513-19.321c-3.799-7.007-7.066-14.345-9.729-21.975c-5.407-15.461-8.342-32.088-8.342-49.388   c0-82.692,67.029-149.722,149.698-149.722C338.678,106.278,405.697,173.308,405.697,256z"/>
	<path style="fill:#407FFF;" d="M264.71,207.38l14.503,14.506c2.003,2.003,1.991,5.255-0.027,7.243l-38.735,38.17l-19.187-20.708   c-5.618-6.062-13.267-9.54-21.529-9.791c-8.262-0.251-16.112,2.744-22.092,8.454l-62.999,60.134   c2.663,7.63,5.93,14.968,9.729,21.975c3.679,6.775,7.87,13.229,12.513,19.321l61.27-58.475l19.438,20.96   c5.628,6.072,13.609,9.64,21.881,9.801c8.282,0.151,16.393-3.116,22.243-8.967l49.503-48.928c1.996-1.973,5.21-1.963,7.194,0.021   l14.551,14.553c3.214,3.215,8.71,0.938,8.71-3.608v-65.73c0-4.22-3.42-7.641-7.64-7.641h-65.72   C263.772,198.669,261.495,204.165,264.71,207.38z"/>
	<g>
		<path style="fill:#406AEF;" d="M166.796,297.675l-38.377,36.626c2.627,4.269,5.44,8.41,8.468,12.382l61.27-58.475h-7.731    C181.625,288.208,173.163,291.599,166.796,297.675z"/>
		<path style="fill:#406AEF;" d="M311.222,261.074c-11.151-2.23-22.682,1.225-30.771,9.22l-40.174,39.708    c-3.112,3.113-6.867,5.485-10.945,7.01c3.228,1.21,6.659,1.89,10.144,1.957c8.282,0.151,16.393-3.116,22.243-8.967    L311.222,261.074L311.222,261.074z"/>
		<path style="fill:#406AEF;" d="M334.037,198.669h-21.442c4.219,0,7.64,3.421,7.64,7.641v56.604l12.732,12.734    c3.214,3.215,8.71,0.938,8.71-3.609v-65.73C341.677,202.089,338.256,198.669,334.037,198.669z"/>
	</g>
</g>
<g>
	<path d="M436.991,74.98C388.647,26.629,324.37,0,256,0S123.354,26.629,75.009,74.98C26.665,123.333,0.041,187.62,0.041,256   c0,66.438,25.334,129.409,71.335,177.313c2.869,2.987,7.617,3.083,10.604,0.214c2.988-2.868,3.084-7.616,0.215-10.604   C38.89,377.827,15.041,318.546,15.041,256c0-64.374,25.064-124.895,70.576-170.413S191.638,15,256,15   c64.363,0,124.873,25.068,170.384,70.587S496.959,191.626,496.959,256s-25.064,124.895-70.576,170.413S320.363,497,256,497   c-55.349,0-107.391-18.25-150.5-52.777c-3.234-2.591-7.953-2.067-10.542,1.165c-2.589,3.232-2.067,7.953,1.166,10.542   c22.213,17.791,47.004,31.65,73.686,41.191C197.417,506.994,226.416,512,256,512c68.37,0,132.647-26.629,180.991-74.98   c48.344-48.353,74.968-112.64,74.968-181.02S485.335,123.333,436.991,74.98z"/>
	<path d="M256,113.778c4.142,0,7.5-3.357,7.5-7.5s-3.358-7.5-7.5-7.5c-86.679,0-157.198,70.529-157.198,157.222   c0,17.789,2.948,35.238,8.761,51.859c2.754,7.89,6.192,15.654,10.219,23.083c0.955,1.759,1.948,3.505,2.976,5.235   c3.085,5.189,6.49,10.234,10.163,15.053c0.001,0.001,0.002,0.003,0.004,0.004c30.023,39.393,75.609,61.987,125.074,61.987   c86.679,0,157.197-70.529,157.197-157.222c0-35.844-12.379-70.909-34.857-98.736c-22.146-27.417-53.161-46.797-87.332-54.571   c-4.039-0.916-8.058,1.61-8.977,5.649c-0.919,4.039,1.61,8.059,5.649,8.978c30.899,7.029,58.952,24.563,78.991,49.37   c20.33,25.167,31.525,56.885,31.525,89.311c0,78.421-63.79,142.222-142.197,142.222c-42.507,0-81.842-18.458-108.958-50.862   l50.79-48.473l14.264,15.38c7.002,7.553,16.928,12,27.243,12.201c10.308,0.188,20.402-3.881,27.652-11.132l47.807-47.252   l12.865,12.867c3.617,3.618,9.009,4.689,13.733,2.732c4.726-1.957,7.78-6.527,7.78-11.644v-65.73   c0-8.349-6.792-15.141-15.14-15.141h-65.72c-5.115,0-9.685,3.054-11.643,7.778c-1.958,4.727-0.886,10.117,2.73,13.735h0   l12.796,12.799l-31.506,31.047l-13.931-15.036c-6.996-7.548-16.515-11.876-26.801-12.188c-10.3-0.325-20.062,3.424-27.499,10.525   l-54.184,51.72c-2.975-11.548-4.478-23.459-4.478-35.549C113.802,177.579,177.592,113.778,256,113.778z M182.822,250.679   c4.51-4.307,10.425-6.558,16.685-6.383c6.24,0.19,12.013,2.815,16.255,7.393l19.187,20.708c1.379,1.488,3.302,2.354,5.331,2.4   c2.019,0.029,3.989-0.731,5.435-2.156l38.735-38.17c2.411-2.375,3.745-5.547,3.757-8.931s-1.298-6.565-3.69-8.957l-10.412-10.414   h59.933c0.077,0,0.14,0.063,0.14,0.141v59.941l-10.458-10.46c-4.884-4.883-12.855-4.909-17.77-0.052l-49.534,48.96   c-4.417,4.417-10.551,6.871-16.793,6.771c-6.255-0.121-12.279-2.819-16.527-7.401l-19.438-20.96   c-1.365-1.473-3.264-2.336-5.271-2.396c-1.999-0.064-3.954,0.685-5.407,2.07l-55.008,52.5   c-5.877-8.729-10.765-18.065-14.582-27.873L182.822,250.679z"/>
</g>















</svg>
