<svg id="Capa_1" enable-background="new 0 0 511.988 511.988" height="512" viewBox="0 0 511.988 511.988" width="512" xmlns="http://www.w3.org/2000/svg"><g><g><g><g><path d="m205.754 435.681-40.207.013-68.121 50.286-8.429-50.287h-53.55c-14.054 0-25.447-11.411-25.447-25.487v-192.758c0-14.076 11.393-25.487 25.447-25.487h371.105c14.054 0 25.448 11.411 25.448 25.487v192.758c0 14.076-11.393 25.487-25.448 25.487l-110.386-.013" fill="#ccf5fc"/></g></g><path d="m477.88 114.275-71.333-44.689 20.707-33.092c6.537-10.447 20.308-13.614 30.752-7.071l33.527 21.004c10.436 6.538 13.599 20.296 7.067 30.736z" fill="#ff9eb1"/><g><path d="m332.494 346.607 121.198-193.696-35.648-22.334-118.955 190.006.011.047" fill="#ffe6b4"/><path d="m299.089 320.583 118.955-190.006-35.685-22.356-121.199 193.697" fill="#ffda8f"/><path d="m382.359 108.221 35.685 22.356 35.648 22.333 24.163-38.621-71.333-44.689-24.586 39.298z" fill="#faf7f5"/></g><path d="m298.988 362.386-37.376-23.415 1.198 39.663z" fill="#d1aee5"/><path d="m331.856 347.625.214-.341-7.351-31.967-26.043 5.989-5.993-26.058-31.946 7.346-.214.342 1.089 36.035 37.376 23.415z" fill="#faf7f5"/></g><g><g><path d="m496.842 41.953-33.526-21.004c-7.313-4.583-15.978-6.043-24.391-4.107-8.413 1.934-15.568 7.029-20.148 14.348l-94.354 150.771h-288.976c-19.546 0-35.447 15.919-35.447 35.487v192.759c0 19.567 15.901 35.486 35.447 35.486h45.087l7.029 41.94c.574 3.429 2.889 6.313 6.112 7.617 1.21.489 2.482.729 3.749.729 2.105 0 4.193-.665 5.94-1.955l65.475-48.333 36.917-.012c5.523-.002 9.999-4.48 9.997-10.003-.002-5.522-4.479-9.997-10-9.997h-.003l-40.207.013c-2.137.001-4.217.686-5.936 1.955l-55.013 40.61-5.735-34.219c-.808-4.817-4.978-8.347-9.862-8.347h-53.55c-8.518 0-15.447-6.947-15.447-15.486v-192.757c0-8.54 6.93-15.487 15.447-15.487h276.461l-25.918 41.422h-211.799c-5.522 0-10 4.477-10 10s4.478 10 10 10h199.284l-21.434 34.255c-1.047 1.676-1.573 3.624-1.514 5.6l.078 2.571h-176.414c-5.522 0-10 4.478-10 10s4.478 10 10 10h177.019l1.294 42.826h-178.313c-5.522 0-10 4.478-10 10s4.478 10 10 10h188.619.039c.074 0 .148-.001.222-.003.007 0 .015-.001.022-.001 1.425-.04 2.776-.378 3.992-.954l68.869-30.93c1.802-.809 3.324-2.134 4.374-3.807l81.672-130.526v187.793c0 8.539-6.93 15.486-15.446 15.486l-110.387-.013c-.001 0 0 0-.001 0-5.521 0-9.999 4.477-10 9.999s4.476 10 9.999 10.001l110.388.013c19.546 0 35.447-15.919 35.447-35.486v-192.759c0-6.657-1.807-13.022-5.254-18.601l70.332-112.379c9.443-15.093 4.852-35.062-10.236-44.515zm-111.313 80.055 18.734 11.737-101.262 161.745-.571-2.483c-.595-2.585-2.191-4.827-4.439-6.234-2.247-1.406-4.96-1.862-7.548-1.271l-8.426 1.938zm-85.761 229.066-28.322-17.743-.688-22.78 14.421-3.316 3.751 16.313c.595 2.585 2.191 4.827 4.439 6.234 2.248 1.408 4.962 1.865 7.548 1.271l16.298-3.748 3.321 14.442zm20.149-44.913 101.295-161.798 18.702 11.716-103.511 165.427-1.939-8.43c-.594-2.585-2.19-4.827-4.439-6.234-2.248-1.408-4.965-1.865-7.548-1.27zm130.605-167.037-54.385-34.072 13.555-21.665 54.384 34.071zm39.601-63.266-15.412 24.631-54.385-34.071 15.404-24.619c1.745-2.787 4.471-4.729 7.676-5.466 3.202-.735 6.504-.182 9.292 1.565l33.525 21.004c5.749 3.601 7.498 11.207 3.9 16.956z"/></g><g><path d="m251.14 445.678c-4.174 0-8.006-2.7-9.404-6.631-1.377-3.871-.212-8.329 2.936-10.991 3.284-2.776 8.092-3.121 11.745-.864 3.503 2.165 5.343 6.404 4.534 10.445-.925 4.617-5.103 8.041-9.811 8.041z"/></g></g></g></svg>