<svg height="512pt" viewBox="0 0 512 512" width="512pt" xmlns="http://www.w3.org/2000/svg"><path d="m10 409.984375v-86.960937c0-28.519532 19.847656-53.195313 47.703125-59.304688l63.808594-14c15.679687-3.4375 26.855469-17.328125 26.855469-33.382812v-.410157h82.796874v.390625c0 16.0625 11.183594 29.957032 26.875 33.386719l64.199219 14.039063c27.875 6.09375 47.746094 30.777343 47.746094 59.3125v86.929687zm0 0" fill="#9bc6ff"/><path d="m258.039062 249.707031c-15.691406-3.433593-26.875-17.328125-26.875-33.390625v-.390625h-82.796874v.410157c0 16.054687-11.175782 29.945312-26.855469 33.386718l-.042969.007813-.167969.207031 68.464844 160.046875 68.457031-160.046875zm0 0" fill="#fff"/><path d="m120.824219 105.714844v48.9375c0 39.761718 32.234375 71.996094 71.996093 71.996094 39.761719 0 71.996094-32.234376 71.996094-71.996094v-48.9375" fill="#ffddcf"/><path d="m180.597656 10h97.261719v48.265625c0 25.035156-20.292969 45.332031-45.328125 45.332031h-111.707031v-33.820312c0-33.015625 26.761719-59.777344 59.773437-59.777344zm0 0" fill="#ffc15a"/><path d="m501.980469 388.984375c0 62.40625-50.589844 112.996094-112.996094 112.996094s-112.996094-50.589844-112.996094-112.996094 50.589844-112.996094 112.996094-112.996094 112.996094 50.589844 112.996094 112.996094zm0 0" fill="#cbe558"/><path d="m421.8125 340.753906-45.554688 45.554688-20.101562-20.101563-28.28125 28.285157 48.382812 48.382812.074219-.074219 28.210938-28.207031 45.554687-45.554688zm0 0" fill="#fff"/><path d="m510.148438 367.769531c-4.359376-25.007812-16.183594-47.746093-34.191407-65.753906-32.3125-32.316406-78.28125-42.851563-119.503906-31.617187-.070313-.070313-.136719-.140626-.210937-.207032-9.027344-8.027344-20.046876-13.636718-31.863282-16.21875l-64.203125-14.039062c-9.609375-2.097656-16.917969-9.929688-18.628906-19.382813 20.167969-14.953125 33.269531-38.921875 33.269531-65.898437v-60.757813c8.128906-9.632812 13.042969-22.066406 13.042969-35.628906v-48.265625c0-5.523438-4.476563-10-10-10h-97.261719c-38.472656 0-69.777344 31.300781-69.777344 69.777344v33.816406c0 .152344.015626.300781.023438.453125-.007812.148437-.023438.296875-.023438.449219v50.15625c0 24.328125 10.664063 46.207031 27.546876 61.234375v.039062.40625c0 11.273438-7.992188 21.203125-19 23.617188l-63.804688 14c-15.691406 3.441406-29.878906 12.230469-39.949219 24.746093-10.070312 12.519532-15.613281 28.261719-15.613281 44.328126v86.960937c0 5.523437 4.476562 10 10 10h259.996094c5.3125 20.519531 15.976562 39.929687 32.019531 55.972656 17.964844 17.964844 40.644531 29.777344 65.585937 34.160157 7.15625 1.257812 14.347657 1.882812 21.507813 1.882812 17.214844 0 34.242187-3.613281 50.132813-10.722656 5.042968-2.253906 7.300781-8.167969 5.046874-13.210938-2.253906-5.042968-8.171874-7.300781-13.210937-5.042968-38.726563 17.320312-84.910156 8.800781-114.921875-21.207032-40.15625-40.160156-40.15625-105.503906 0-145.660156 40.160156-40.160156 105.5-40.160156 145.660156 0 30.101563 30.101562 38.574219 76.390625 21.085938 115.183594-2.269532 5.035156-.027344 10.957031 5.007812 13.226562 5.035156 2.269532 10.957032.027344 13.226563-5.007812 10.152343-22.527344 13.269531-47.351563 9.011719-71.789063zm-379.328126-297.992187c0-27.449219 22.332032-49.777344 49.777344-49.777344h87.261719v38.265625c0 19.480469-15.847656 35.332031-35.328125 35.332031h-101.710938zm0 84.875v-41.054688h101.710938c7.925781 0 15.460938-1.691406 22.285156-4.707031v45.761719c0 34.1875-27.8125 62-61.996094 62-34.1875 0-62-27.8125-62-62zm25.875 73.589844c10.90625 5.375 23.164063 8.40625 36.125 8.40625 10.878907 0 21.265626-2.148438 30.773438-6.011719 3.691406 10.632812 11.367188 19.601562 21.382812 24.851562l-55.210937 129.070313-55.207031-129.054688c10.761718-5.648437 18.820312-15.585937 22.136718-27.261718zm-136.695312 94.78125c0-23.640626 16.757812-44.476563 39.847656-49.539063l55.449219-12.164063 59.3125 138.664063h-154.609375zm282.015625-21.007813c-26.773437 26.773437-38.589844 62.917969-35.472656 97.96875h-61.625l59.324219-138.683594 55.863281 12.214844c4.933593 1.078125 9.664062 2.910156 14.039062 5.371094-11.601562 5.765625-22.476562 13.472656-32.128906 23.128906zm0 0"/><path d="m457.167969 361.964844-28.285157-28.28125c-3.902343-3.90625-10.234374-3.90625-14.140624 0l-38.484376 38.484375-13.027343-13.03125c-1.875-1.875-4.421875-2.929688-7.074219-2.929688-2.648438 0-5.195312 1.054688-7.070312 2.929688l-28.28125 28.28125c-3.90625 3.90625-3.90625 10.238281 0 14.144531l48.382812 48.382812c1.953125 1.953126 4.511719 2.929688 7.070312 2.929688 2.550782 0 5.097657-.96875 7.046876-2.90625l73.863281-73.859375c1.875-1.875 2.929687-4.417969 2.929687-7.070313 0-2.652343-1.054687-5.195312-2.929687-7.074218zm-80.910157 66.769531-34.242187-34.242187 14.140625-14.144532 13.03125 13.03125c1.875 1.875 4.417969 2.929688 7.070312 2.929688 2.652344 0 5.195313-1.054688 7.070313-2.929688l38.484375-38.484375 14.140625 14.144531zm0 0"/><path d="m468.882812 458.882812c-2.628906 0-5.210937 1.070313-7.070312 2.929688s-2.929688 4.441406-2.929688 7.070312c0 2.640626 1.070313 5.210938 2.929688 7.070313s4.441406 2.929687 7.070312 2.929687c2.640626 0 5.210938-1.070312 7.070313-2.929687 1.871094-1.859375 2.929687-4.429687 2.929687-7.070313 0-2.628906-1.058593-5.210937-2.929687-7.070312-1.859375-1.859375-4.429687-2.929688-7.070313-2.929688zm0 0"/></svg>