<?xml version="1.0" encoding="iso-8859-1"?>
<!-- Generator: Adobe Illustrator 19.0.0, SVG Export Plug-In . SVG Version: 6.00 Build 0)  -->
<svg version="1.1" id="Capa_1" xmlns="http://www.w3.org/2000/svg" xmlns:xlink="http://www.w3.org/1999/xlink" x="0px" y="0px"
	 viewBox="0 0 512 512" style="enable-background:new 0 0 512 512;" xml:space="preserve">
<path style="fill:#9B4C14;" d="M168.619,424.759c0,42.667,44.65,77.256,87.381,77.256s87.381-34.589,87.381-77.256V335.83H168.619
	V424.759z"/>
<path style="fill:#EEEEEE;" d="M342.975,69.957h-173.95c-0.136,0-0.27-0.008-0.406-0.01V335.83H343.38V69.946
	C343.245,69.949,343.111,69.957,342.975,69.957z"/>
<path style="fill:#41A75F;" d="M256,111.437c-24.602,0-44.545,67.891-44.545,92.456s19.944,44.479,44.545,44.479
	c24.601,0,44.545-19.914,44.545-44.479S280.602,111.437,256,111.437z"/>
<path style="fill:#69CAEE;" d="M343,69.957H169c-13.75,0-25-11.233-25-24.963V34.948c0-13.73,11.25-24.963,25-24.963h174
	c13.75,0,25,11.233,25,24.963v10.046C368,58.724,356.75,69.957,343,69.957z"/>
<path d="M343,0H169c-19.299,0-35,15.678-35,34.948v10.046c0,15.663,10.373,28.952,24.619,33.379c0,0,0,346.016,0,346.386
	c0,49.423,50.796,87.241,97.38,87.241c46.406,0,97.381-38.33,97.381-87.241V78.373C367.627,73.946,378,60.657,378,44.994V34.948
	C378,15.678,362.299,0,343,0z M333.381,325.845H266v-21.912l33.344-11.653c5.212-1.822,7.959-7.518,6.135-12.723
	c-1.824-5.205-7.528-7.949-12.742-6.126L266,282.775v-25.351c25.315-4.705,44.545-26.911,44.545-53.531
	c0-24.014-8.255-49.093-18.792-70.484c-6.836-13.879-18.135-31.956-35.753-31.956c-18.185,0-29.132,17.867-35.987,32.358
	c-9.941,21.013-18.558,46.389-18.558,70.083c0,26.62,19.23,48.826,44.545,53.531v25.449l-25.287-8.65
	c-5.222-1.787-10.911,0.993-12.701,6.21c-1.79,5.217,0.995,10.895,6.22,12.682L246,303.983v21.862h-67.381V79.942h154.762V325.845
	L333.381,325.845z M233.782,152.174c9.783-24.325,18.811-30.752,22.218-30.752s12.436,6.427,22.218,30.752
	c8.006,19.907,12.327,41.505,12.327,51.718c0,15.549-10.358,28.722-24.545,33.015v-45.009c0-5.515-4.477-9.985-10-9.985
	c-5.523,0-10,4.47-10,9.985v45.009c-14.187-4.293-24.545-17.466-24.545-33.015C221.455,193.679,225.775,172.082,233.782,152.174z
	 M333.381,424.759c0,37.885-41.597,67.271-77.381,67.271s-77.381-29.385-77.381-67.271v-78.944h154.762V424.759L333.381,424.759z
	 M358,44.994c0,8.206-6.645,14.884-14.842,14.97l-0.269,0.008H169.12l-0.279-0.008C160.644,59.877,154,53.199,154,44.994V34.948
	c0-8.259,6.729-14.978,15-14.978h174c8.271,0,15,6.719,15,14.978V44.994z"/>
<path d="M256,450.453c-5.523,0-10,4.47-10,9.985v0.333c0,5.515,4.477,9.985,10,9.985c5.523,0,10-4.47,10-9.985v-0.333
	C266,454.923,261.523,450.453,256,450.453z"/>
<path d="M298.042,449.766c5.523,0,10-4.47,10-9.985v-0.333c0-5.515-4.477-9.985-10-9.985s-10,4.47-10,9.985v0.333
	C288.042,445.296,292.52,449.766,298.042,449.766z"/>
<path d="M213.958,429.463c-5.523,0-10,4.47-10,9.985v0.333c0,5.515,4.477,9.985,10,9.985s10-4.47,10-9.985v-0.333
	C223.958,433.933,219.48,429.463,213.958,429.463z"/>
<path d="M298.042,407.786c5.523,0,10-4.47,10-9.985v-0.333c0-5.515-4.477-9.985-10-9.985s-10,4.47-10,9.985v0.333
	C288.042,403.316,292.52,407.786,298.042,407.786z"/>
<path d="M213.958,387.483c-5.523,0-10,4.47-10,9.985v0.333c0,5.515,4.477,9.985,10,9.985s10-4.47,10-9.985v-0.333
	C223.958,391.953,219.48,387.483,213.958,387.483z"/>
<path d="M256,408.473c-5.523,0-10,4.47-10,9.985v0.333c0,5.515,4.477,9.985,10,9.985c5.523,0,10-4.47,10-9.985v-0.333
	C266,412.943,261.523,408.473,256,408.473z"/>
<path d="M246,376.478v0.333c0,5.515,4.477,9.985,10,9.985c5.523,0,10-4.47,10-9.985v-0.333c0-5.515-4.477-9.985-10-9.985
	C250.477,366.493,246,370.963,246,376.478z"/>
<g>
</g>
<g>
</g>
<g>
</g>
<g>
</g>
<g>
</g>
<g>
</g>
<g>
</g>
<g>
</g>
<g>
</g>
<g>
</g>
<g>
</g>
<g>
</g>
<g>
</g>
<g>
</g>
<g>
</g>
</svg>
