<svg height="512pt" viewBox="0 0 512.00038 512" width="512pt" xmlns="http://www.w3.org/2000/svg"><path d="m480.925781 181.445312c0-14.773437 26.761719-32.859374 23.117188-46.480468-3.765625-14.09375-36.09375-16.363282-43.234375-28.703125-7.242188-12.519531 6.878906-41.632813-3.28125-51.789063-10.160156-10.160156-39.269532 3.957032-51.789063-3.285156-12.339843-7.136719-14.609375-39.464844-28.703125-43.230469-13.621094-3.640625-31.707031 23.117188-46.476562 23.117188-14.773438 0-32.859375-26.757813-46.480469-23.117188-14.09375 3.765625-16.363281 36.09375-28.703125 43.234375-12.519531 7.242188-41.632812-6.878906-51.789062 3.28125-10.160157 10.160156 3.957031 39.269532-3.285157 51.789063-7.136719 12.339843-39.464843 14.609375-43.230469 28.703125-3.640624 13.621094 23.117188 31.707031 23.117188 46.480468 0 14.769532-26.757812 32.855469-23.117188 46.476563 3.765626 14.09375 36.09375 16.363281 43.234376 28.703125 7.242187 12.519531-6.878907 41.632812 3.28125 51.789062 10.160156 10.160157 39.269531-3.957031 51.789062 3.285157 12.339844 7.136719 14.609375 39.464843 28.703125 43.230469 13.621094 3.640624 31.707031-23.117188 46.480469-23.117188 14.769531 0 32.855468 26.757812 46.476562 23.117188 14.09375-3.765626 16.363282-36.09375 28.703125-43.234376 12.519531-7.242187 41.632813 6.878907 51.789063-3.28125 10.160156-10.160156-3.957032-39.269531 3.285156-51.789062 7.136719-12.339844 39.464844-14.609375 43.230469-28.703125 3.644531-13.621094-23.117188-31.707031-23.117188-46.476563zm0 0" fill="#ffee8c"/><path d="m446.640625 181.441406c0 58.632813-43.46875 107.113282-99.945313 114.96875-5.273437.738282-10.65625 1.113282-16.136718 1.113282-64.109375 0-116.085938-51.972657-116.085938-116.082032s51.976563-116.082031 116.085938-116.082031c5.480468 0 10.863281.375 16.136718 1.113281 56.476563 7.855469 99.945313 56.335938 99.945313 114.96875zm0 0" fill="#f28f44"/><path d="m446.640625 181.441406c0 58.632813-43.46875 107.113282-99.945313 114.96875-56.476562-7.855468-99.949218-56.335937-99.949218-114.96875 0-58.632812 43.472656-107.113281 99.949218-114.964844 56.476563 7.851563 99.945313 56.332032 99.945313 114.964844zm0 0" fill="#ffd073"/><path d="m328.722656 256.894531c0 29.8125-24.164062 53.976563-53.984375 53.976563h-195.355469c-39.640624 0-71.78125-32.128906-71.78125-71.777344 0-39.640625 32.140626-71.777344 71.78125-71.777344 3.554688 0 7.050782.273438 10.476563.769532 16.210937-32.191407 49.546875-54.28125 88.0625-54.28125 46.597656 0 85.640625 32.351562 95.894531 75.820312 1.023438 4.339844 1.761719 8.785156 2.1875 13.316406v.007813c29.222656.671875 52.71875 24.5625 52.71875 53.945312zm0 0" fill="#d3ddea"/><path d="m212.167969 119.929688c-10.667969-3.964844-22.210938-6.121094-34.246094-6.121094-38.515625 0-71.839844 22.089844-88.0625 54.269531v.007813c-3.425781-.496094-6.921875-.769532-10.476563-.769532-39.648437 0-71.78125 32.140625-71.78125 71.78125 0 39.648438 32.132813 71.777344 71.78125 71.777344h34.691407c-35.726563 0-64.675781-28.957031-64.675781-64.675781 0-31.695313 22.800781-58.070313 52.902343-63.601563 2.980469-.558594 6.027344-.902344 9.140625-1.023437.871094-.03125 1.753906-.050781 2.632813-.050781 11.613281 0 22.515625 3.058593 31.929687 8.429687-1.308594-9.113281-10.726562-17.648437-24.617187-24.527344 7.625-25.789062 33.582031-49.710937 90.78125-45.496093zm0 0" fill="#97b0cc"/><path d="m456.128906 328.660156c0 29.808594-24.167968 53.976563-53.988281 53.976563h-195.355469c-39.636718 0-71.777344-32.132813-71.777344-71.78125 0-39.636719 32.140626-71.777344 71.777344-71.777344 3.558594 0 7.054688.273437 10.480469.769531 16.210937-32.191406 49.546875-54.28125 88.058594-54.28125 46.601562 0 85.640625 32.355469 95.894531 75.824219 1.023438 4.335937 1.765625 8.785156 2.191406 13.3125v.011719c29.21875.667968 52.71875 24.558594 52.71875 53.945312zm0 0" fill="#d3ddea"/><path d="m339.574219 191.691406c-10.671875-3.960937-22.210938-6.121094-34.25-6.121094-38.511719 0-71.839844 22.089844-88.0625 54.269532v.011718c-3.421875-.496093-6.917969-.769531-10.476563-.769531-39.648437 0-71.777344 32.136719-71.777344 71.777344 0 39.648437 32.128907 71.777344 71.777344 71.777344h34.695313c-35.726563 0-64.675781-28.957031-64.675781-64.675781 0-31.695313 22.796874-58.070313 52.902343-63.601563 2.976563-.554687 6.027344-.902344 9.136719-1.023437.871094-.03125 1.753906-.050782 2.636719-.050782 11.609375 0 22.511719 3.0625 31.925781 8.429688-1.304688-9.109375-10.726562-17.644532-24.617188-24.523438 7.628907-25.792968 33.582032-49.714844 90.785157-45.5zm0 0" fill="#97b0cc"/><path d="m28.371094 408.003906c-12.414063 7.183594-20.773438 20.597656-20.773438 35.96875 0 .550782.011719 1.097656.03125 1.640625 1.015625 26.113281 40.46875 26.113281 41.480469 0 .023437-.542969.03125-1.089843.03125-1.640625.003906-15.371094-8.355469-28.785156-20.769531-35.96875zm0 0" fill="#84abc1"/><path d="m28.371094 465.199219c-10.113282 0-20.222656-6.535157-20.730469-19.585938-.019531-.546875-.042969-1.09375-.042969-1.640625 0-15.371094 8.359375-28.785156 20.773438-35.96875-2.503906 7.183594-4.183594 20.597656-4.183594 35.96875 0 .546875 0 1.09375.007812 1.640625.101563 13.050781 2.140626 19.585938 4.175782 19.585938zm0 0" fill="#4d87a1"/><path d="m97.503906 337.703125c-12.410156 7.183594-20.769531 20.59375-20.769531 35.96875 0 .550781.011719 1.097656.03125 1.640625 1.015625 26.113281 40.464844 26.113281 41.480469 0 .019531-.542969.03125-1.089844.03125-1.640625 0-15.375-8.359375-28.785156-20.773438-35.96875zm0 0" fill="#84abc1"/><path d="m97.503906 394.898438c-10.109375 0-20.222656-6.535157-20.730468-19.585938-.019532-.546875-.039063-1.09375-.039063-1.640625 0-15.371094 8.359375-28.789063 20.769531-35.972656-2.5 7.183593-4.183594 20.601562-4.183594 35.972656 0 .546875 0 1.09375.011719 1.640625.101563 13.050781 2.136719 19.585938 4.171875 19.585938zm0 0" fill="#4d87a1"/><path d="m119.417969 446.84375c-12.414063 7.183594-20.769531 20.597656-20.769531 35.972656 0 .546875.011718 1.09375.03125 1.636719 1.011718 26.113281 40.464843 26.113281 41.480468 0 .019532-.542969.03125-1.089844.03125-1.636719 0-15.375-8.359375-28.789062-20.773437-35.972656zm0 0" fill="#84abc1"/><path d="m119.417969 504.042969c-10.109375 0-20.222657-6.535157-20.730469-19.585938-.019531-.546875-.039062-1.09375-.039062-1.644531 0-15.371094 8.359374-28.785156 20.769531-35.96875-2.5 7.183594-4.183594 20.597656-4.183594 35.96875 0 .550781 0 1.097656.011719 1.644531.101562 13.050781 2.136718 19.585938 4.171875 19.585938zm0 0" fill="#4d87a1"/><path d="m210.46875 408.003906c-12.414062 7.183594-20.773438 20.597656-20.773438 35.96875 0 .550782.011719 1.097656.03125 1.640625 1.015626 26.113281 40.464844 26.113281 41.480469 0 .019531-.542969.03125-1.089843.03125-1.640625 0-15.371094-8.355469-28.785156-20.769531-35.96875zm0 0" fill="#84abc1"/><path d="m210.46875 465.199219c-10.113281 0-20.226562-6.535157-20.730469-19.585938-.023437-.546875-.042969-1.09375-.042969-1.640625 0-15.371094 8.359376-28.785156 20.773438-35.96875-2.503906 7.183594-4.1875 20.597656-4.1875 35.96875 0 .546875 0 1.09375.011719 1.640625.101562 13.050781 2.136719 19.585938 4.175781 19.585938zm0 0" fill="#4d87a1"/><path d="m301.515625 446.84375c-12.414063 7.183594-20.769531 20.597656-20.769531 35.972656 0 .546875.011718 1.09375.03125 1.636719 1.011718 26.113281 40.464844 26.113281 41.480468 0 .019532-.542969.03125-1.089844.03125-1.636719 0-15.375-8.359374-28.789062-20.773437-35.972656zm0 0" fill="#84abc1"/><path d="m301.515625 504.042969c-10.109375 0-20.222656-6.535157-20.730469-19.585938-.019531-.546875-.039062-1.09375-.039062-1.644531 0-15.371094 8.359375-28.785156 20.769531-35.96875-2.5 7.183594-4.183594 20.597656-4.183594 35.96875 0 .550781 0 1.097656.011719 1.644531.101562 13.050781 2.136719 19.585938 4.171875 19.585938zm0 0" fill="#4d87a1"/><path d="m392.566406 408.003906c-12.414062 7.183594-20.773437 20.597656-20.773437 35.96875 0 .550782.011719 1.097656.03125 1.640625 1.015625 26.113281 40.464843 26.113281 41.480469 0 .019531-.542969.03125-1.089843.03125-1.640625 0-15.371094-8.355469-28.785156-20.769532-35.96875zm0 0" fill="#84abc1"/><path d="m392.566406 465.199219c-10.113281 0-20.226562-6.535157-20.734375-19.585938-.019531-.546875-.039062-1.09375-.039062-1.640625 0-15.371094 8.359375-28.785156 20.773437-35.96875-2.503906 7.183594-4.1875 20.597656-4.1875 35.96875 0 .546875 0 1.09375.011719 1.640625.101563 13.050781 2.136719 19.585938 4.175781 19.585938zm0 0" fill="#4d87a1"/><path d="m488.519531 181.4375c0-4.378906 5.480469-11.453125 10.320313-17.695312 7.589844-9.796876 15.441406-19.921876 12.542968-30.746094-2.996093-11.203125-15.128906-16.140625-26.863281-20.914063-6.738281-2.742187-15.125-6.152343-17.132812-9.617187-2.085938-3.613282-.847657-12.707032.144531-20.015625 1.691406-12.429688 3.4375-25.285157-4.632812-33.355469-8.0625-8.0625-20.90625-6.316406-33.328126-4.628906-7.3125.996094-16.414062 2.230468-20.03125.140625-3.476562-2.011719-6.890624-10.398438-9.632812-17.136719-4.773438-11.734375-9.710938-23.863281-20.910156-26.851562-10.820313-2.898438-20.941406 4.949218-30.730469 12.53125-6.242187 4.839843-13.324219 10.324218-17.710937 10.324218-4.382813 0-11.457032-5.480468-17.699219-10.316406-9.792969-7.589844-19.917969-15.4375-30.738281-12.539062-11.207032 2.988281-16.144532 15.121093-20.917969 26.851562-2.742188 6.738281-6.15625 15.125-9.636719 17.136719-3.609375 2.089843-12.707031.851562-20.019531-.140625-12.417969-1.6875-25.265625-3.433594-33.335938 4.628906-8.0625 8.070312-6.316406 20.914062-4.625 33.335938.992188 7.3125 2.230469 16.414062.136719 20.035156-.535156.925781-1.894531 2.367187-5.257812 4.265625-3.523438-.34375-7.058594-.527344-10.542969-.527344-38.558594 0-73.464844 20.464844-92.335938 53.757813-2.085937-.164063-4.160156-.246094-6.203125-.246094-43.769531 0-79.378906 35.605468-79.378906 79.375 0 43.769531 35.609375 79.378906 79.378906 79.378906h48.398438c1.40625 14.914062 6.921875 28.933594 16.191406 40.917969 2.566406 3.320312 7.339844 3.929687 10.660156 1.359375 3.320313-2.566406 3.929688-7.339844 1.359375-10.660156-8.753906-11.316407-13.382812-24.882813-13.382812-39.230469 0-35.390625 28.792969-64.179688 64.179687-64.179688 3.0625 0 6.222656.230469 9.386719.691407 3.234375.46875 6.410156-1.183594 7.878906-4.105469 15.5625-30.902344 46.703125-50.097657 81.273438-50.097657 20.902343 0 40.550781 6.894532 56.824219 19.9375 15.804687 12.671876 27.054687 30.4375 31.675781 50.027344.945312 4 1.617187 8.089844 2.003906 12.15625.292969 3.863282 3.472656 6.933594 7.40625 7.023438 12.15625.277344 23.542969 5.222656 32.0625 13.921875 8.53125 8.714843 13.230469 20.230469 13.230469 32.425781 0 25.570312-20.808594 46.375-46.386719 46.375h-195.355469c-10.105468 0-19.777344-2.277344-28.738281-6.773438-3.75-1.882812-8.316406-.371093-10.199219 3.382813-1.882812 3.75-.367187 8.316406 3.382813 10.199219 11.097656 5.570312 23.058593 8.390625 35.554687 8.390625h195.355469c33.960937 0 61.585937-27.621094 61.585937-61.574219 0-4.824219-.566406-9.5625-1.640624-14.152344.269531-.238281.554687-.464844.808593-.71875 8.074219-8.066406 6.328125-20.917968 4.636719-33.347656-.992188-7.308594-2.230469-16.40625-.148438-20.007812 2.011719-3.476563 10.398438-6.890626 17.136719-9.632813 11.734375-4.777344 23.871094-9.714844 26.863281-20.914063 2.898438-10.820312-4.949218-20.941406-12.535156-30.734374-4.84375-6.242188-10.328125-13.320313-10.328125-17.710938zm-275.527343 50.289062c-2.085938-.167968-4.160157-.25-6.207032-.25-41.210937 0-75.171875 31.570313-79.003906 71.796876h-48.402344c-35.390625 0-64.179687-28.792969-64.179687-64.179688 0-35.390625 28.789062-64.179688 64.179687-64.179688 3.0625 0 6.222656.230469 9.386719.691407 3.234375.46875 6.40625-1.183594 7.878906-4.105469 15.5625-30.902344 46.703125-50.097656 81.273438-50.097656 3.679687 0 7.429687.226562 11.136719.671875 35.675781 4.359375 65.488281 29.683593 75.863281 63.8125-21.636719 8.863281-39.992188 24.777343-51.925781 45.839843zm283.710937-5.773437c-1.042969 3.902344-10.792969 7.871094-17.914063 10.769531-9.800781 3.988282-19.9375 8.117188-24.5625 16.097656-4.683593 8.113282-3.195312 19.070313-1.753906 29.667969.53125 3.910157 1.160156 8.5625 1.257813 12.523438-2.1875-3.34375-4.71875-6.496094-7.574219-9.410157-7.902344-8.074218-17.667969-13.710937-28.34375-16.5 23.292969-23.128906 36.429688-54.40625 36.429688-87.664062 0-30.027344-10.894532-58.984375-30.679688-81.535156-19.601562-22.335938-46.527344-36.882813-75.808594-40.953125-5.617187-.789063-11.402344-1.1875-17.1875-1.1875-17.792968 0-34.964844 3.695312-51.042968 10.988281-3.820313 1.730469-5.515626 6.234375-3.78125 10.058594 1.734374 3.820312 6.234374 5.515625 10.058593 3.78125 14.09375-6.390625 29.15625-9.628906 44.765625-9.628906 5.082032 0 10.152344.347656 15.085938 1.042968 25.679687 3.570313 49.292968 16.328125 66.488281 35.925782 17.351563 19.773437 26.90625 45.171874 26.90625 71.507812 0 28.71875-11.167969 55.753906-31.011719 75.945312-5.710937-21.976562-18.546875-41.84375-36.375-56.132812-18.726562-15.011719-42.285156-23.28125-66.332031-23.28125-8.898437 0-17.601563 1.105469-25.957031 3.191406-7.125-23.199218-21.972656-42.890625-41.390625-56.261718 6.796875-11.085938 15.648437-21.03125 25.894531-29.027344 3.308594-2.582032 3.894531-7.359375 1.3125-10.667969-2.578125-3.308594-7.355469-3.894531-10.664062-1.3125-11.742188 9.164063-21.875 20.574219-29.644532 33.296875-5.761718-2.855469-11.804687-5.210938-18.078125-6.988281.027344-.042969.054688-.082031.082031-.128907 4.695313-8.113281 3.203126-19.082031 1.761719-29.683593-1.019531-7.515625-2.417969-17.808594.3125-20.539063 2.738281-2.738281 13.03125-1.339844 20.542969-.320312 10.605469 1.441406 21.570312 2.933594 29.675781-1.761719 7.984375-4.613281 12.113281-14.757813 16.105469-24.5625 2.894531-7.117187 6.859375-16.859375 10.761719-17.902344 3.546875-.945312 11.617187 5.308594 17.507812 9.871094 8.566407 6.636719 17.425781 13.5 27.007813 13.5 9.585937 0 18.449218-6.863281 27.019531-13.503906 5.890625-4.5625 13.953125-10.816407 17.5-9.863281 3.894531 1.039062 7.859375 10.78125 10.753906 17.894531 3.992188 9.808593 8.121094 19.949219 16.101563 24.5625 8.117187 4.699219 19.085937 3.207031 29.6875 1.765625 7.515625-1.023438 17.800781-2.417969 20.53125.316406 2.746094 2.742188 1.34375 13.039062.324218 20.558594-1.441406 10.59375-2.929687 21.554687 1.757813 29.671875 4.621094 7.976562 14.757813 12.097656 24.558594 16.089843 7.117187 2.894532 16.867187 6.859376 17.910156 10.761719.949219 3.542969-5.304687 11.613281-9.871094 17.503907-6.640625 8.570312-13.507812 17.425781-13.507812 27.011718 0 9.589844 6.867187 18.453125 13.511719 27.023438 4.5625 5.886718 10.8125 13.953125 9.867187 17.488281zm0 0"/><path d="m32.175781 401.425781c-2.351562-1.363281-5.257812-1.363281-7.613281 0-15.148438 8.769531-24.5625 25.070313-24.5625 42.550781 0 .648438.0117188 1.292969.0390625 1.933594.6835935 17.652344 14.7695315 26.890625 28.3320315 26.890625 13.558594 0 27.648437-9.238281 28.332031-26.890625.027344-.640625.039063-1.285156.039063-1.933594 0-17.480468-9.414063-33.78125-24.566407-42.550781zm9.339844 43.894531c-.351563 9.0625-7.300781 12.28125-13.144531 12.28125s-12.792969-3.21875-13.148438-12.285156c-.015625-.445312-.023437-.890625-.023437-1.339844 0-10.535156 4.953125-20.449218 13.171875-26.832031 8.21875 6.382813 13.171875 16.300781 13.171875 26.832031 0 .449219-.007813.894532-.027344 1.34375zm0 0"/><path d="m125.839844 375.609375c.023437-.640625.035156-1.289063.035156-1.9375 0-17.476563-9.414062-33.777344-24.5625-42.546875-2.355469-1.363281-5.257812-1.363281-7.613281 0-15.152344 8.769531-24.566407 25.070312-24.566407 42.546875 0 .648437.011719 1.292969.039063 1.9375.683594 17.652344 14.769531 26.886719 28.332031 26.886719s27.648438-9.234375 28.335938-26.886719zm-41.480469-.585937c-.019531-.449219-.027344-.898438-.027344-1.351563 0-10.53125 4.953125-20.449219 13.171875-26.832031 8.21875 6.382812 13.171875 16.300781 13.171875 26.832031 0 .449219-.007812.898437-.023437 1.34375-.355469 9.066406-7.304688 12.28125-13.148438 12.28125s-12.792968-3.214844-13.144531-12.273437zm0 0"/><path d="m123.226562 440.265625c-2.355468-1.363281-5.257812-1.363281-7.613281 0-15.152343 8.769531-24.566406 25.074219-24.566406 42.550781 0 .644532.015625 1.289063.039063 1.933594.683593 17.652344 14.773437 26.890625 28.332031 26.890625 13.5625 0 27.648437-9.238281 28.335937-26.894531.023438-.640625.035156-1.285156.035156-1.929688 0-17.476562-9.410156-33.78125-24.5625-42.550781zm9.339844 43.894531c-.351562 9.066406-7.304687 12.28125-13.148437 12.28125s-12.792969-3.214844-13.144531-12.277344c-.019532-.445312-.027344-.894531-.027344-1.347656 0-10.53125 4.953125-20.449218 13.171875-26.832031 8.21875 6.382813 13.171875 16.300781 13.171875 26.832031 0 .453125-.007813.902344-.023438 1.34375zm0 0"/><path d="m214.273438 401.425781c-2.351563-1.363281-5.257813-1.363281-7.613282 0-15.152344 8.769531-24.5625 25.070313-24.5625 42.550781 0 .648438.011719 1.292969.035156 1.933594.6875 17.652344 14.773438 26.890625 28.335938 26.890625 13.558594 0 27.648438-9.238281 28.332031-26.890625.023438-.640625.039063-1.285156.039063-1.933594 0-17.480468-9.414063-33.78125-24.566406-42.550781zm9.339843 43.894531c-.351562 9.0625-7.300781 12.28125-13.144531 12.28125-5.847656 0-12.796875-3.21875-13.148438-12.285156-.015624-.445312-.027343-.890625-.027343-1.339844 0-10.535156 4.953125-20.449218 13.175781-26.832031 8.21875 6.382813 13.171875 16.300781 13.171875 26.832031 0 .449219-.007813.894532-.027344 1.34375zm0 0"/><path d="m305.324219 440.265625c-2.355469-1.359375-5.257813-1.363281-7.613281 0-15.152344 8.769531-24.566407 25.074219-24.566407 42.550781 0 .644532.015625 1.289063.039063 1.933594.6875 17.652344 14.773437 26.890625 28.332031 26.890625 13.5625 0 27.648437-9.238281 28.335937-26.894531.023438-.640625.035157-1.285156.035157-1.929688 0-17.476562-9.410157-33.78125-24.5625-42.550781zm9.339843 43.894531c-.355468 9.066406-7.304687 12.28125-13.148437 12.28125s-12.792969-3.214844-13.148437-12.277344c-.015626-.445312-.023438-.894531-.023438-1.347656 0-10.53125 4.953125-20.449218 13.171875-26.832031 8.21875 6.382813 13.171875 16.300781 13.171875 26.832031 0 .453125-.007812.902344-.023438 1.34375zm0 0"/><path d="m396.371094 401.425781c-2.351563-1.363281-5.257813-1.363281-7.613282 0-15.152343 8.769531-24.5625 25.070313-24.5625 42.550781 0 .644532.011719 1.289063.035157 1.933594.6875 17.652344 14.773437 26.890625 28.335937 26.890625 13.558594 0 27.644532-9.238281 28.332032-26.894531.023437-.640625.039062-1.285156.039062-1.933594 0-17.472656-9.414062-33.777344-24.566406-42.546875zm9.339844 43.894531c-.351563 9.0625-7.300782 12.28125-13.144532 12.28125-5.847656 0-12.796875-3.21875-13.148437-12.277343-.015625-.445313-.027344-.898438-.027344-1.347657 0-10.53125 4.957031-20.449218 13.175781-26.832031 8.21875 6.382813 13.171875 16.300781 13.171875 26.832031 0 .449219-.011719.902344-.027343 1.34375zm0 0"/><path d="m326.753906 125.617188c4.199219 0 7.597656-3.402344 7.597656-7.597657v-6.691406c0-4.195313-3.398437-7.597656-7.597656-7.597656-4.199218 0-7.597656 3.402343-7.597656 7.597656v6.691406c0 4.195313 3.398438 7.597657 7.597656 7.597657zm0 0"/><path d="m373.53125 125.617188c4.199219 0 7.601562-3.402344 7.601562-7.597657v-6.691406c0-4.195313-3.402343-7.597656-7.601562-7.597656s-7.597656 3.402343-7.597656 7.597656v6.691406c0 4.195313 3.398437 7.597657 7.597656 7.597657zm0 0"/><path d="m344.234375 162.410156h16.210937c4.195313 0 7.597657-3.402344 7.597657-7.601562 0-4.195313-3.402344-7.597656-7.597657-7.597656h-16.210937c-4.199219 0-7.601563 3.402343-7.601563 7.597656 0 4.199218 3.402344 7.601562 7.601563 7.601562zm0 0"/></svg>